<?xml version="1.0" standalone="no"?>
<!DOCTYPE svg PUBLIC "-//W3C//DTD SVG 20010904//EN"
 "http://www.w3.org/TR/2001/REC-SVG-20010904/DTD/svg10.dtd">
<svg version="1.0" xmlns="http://www.w3.org/2000/svg"
 width="1278.000000pt" height="913.000000pt" viewBox="0 0 1278.000000 913.000000"
 preserveAspectRatio="xMidYMid meet">
<metadata>
Created by potrace 1.16, written by Peter Selinger 2001-2019
</metadata>
<g transform="translate(0.000000,913.000000) scale(0.100000,-0.100000)"
fill="#000000" stroke="none">
<path d="M7801 8859 c-128 -38 -217 -163 -330 -464 -111 -299 -164 -569 -186
-947 l-7 -106 -90 -17 c-312 -57 -452 -161 -653 -486 -76 -123 -183 -329 -239
-459 -179 -422 -284 -937 -274 -1349 l3 -124 44 74 c62 105 144 219 231 324
166 199 535 736 613 890 24 50 65 117 90 150 90 120 251 257 359 305 40 18 42
18 72 -1 44 -27 110 -24 316 12 280 50 485 51 645 3 43 -13 58 -25 105 -85 80
-103 242 -255 345 -325 165 -112 354 -195 550 -240 110 -26 327 -26 407 -1 54
16 60 16 90 1 64 -32 135 -93 153 -130 25 -53 12 -87 -98 -251 -153 -227 -193
-371 -184 -653 9 -259 62 -447 253 -883 l99 -228 40 8 c22 4 81 8 130 8 93 0
161 -18 217 -56 14 -11 29 -19 32 -19 9 0 460 554 572 703 323 431 464 830
464 1315 0 319 -60 526 -193 669 -149 160 -385 259 -643 270 l-121 6 33 76
c160 369 127 727 -86 941 -73 74 -166 132 -285 178 -114 45 -200 66 -455 112
-124 23 -270 52 -325 65 -426 101 -849 292 -1212 546 -229 161 -354 204 -482
168z"/>
<path d="M6785 5536 c-118 -38 -280 -149 -390 -269 -80 -85 -99 -112 -90 -127
11 -18 33 -11 78 23 98 75 227 105 368 87 170 -22 188 -23 204 -10 22 18 18
60 -18 190 l-32 115 -40 2 c-22 1 -58 -4 -80 -11z"/>
<path d="M8238 5259 c-50 -69 -118 -186 -118 -206 0 -36 32 -50 213 -97 235
-61 436 -124 577 -181 148 -59 210 -63 210 -11 0 46 -163 176 -403 319 -204
123 -351 196 -408 203 -44 6 -48 5 -71 -27z"/>
<path d="M6522 4879 l-44 -22 38 -13 c61 -21 67 -52 13 -74 -17 -7 -43 -10
-65 -5 l-37 6 5 -55 c8 -101 81 -162 184 -154 147 12 207 188 98 290 -56 52
-122 61 -192 27z"/>
<path d="M8139 4531 c-14 -5 -36 -14 -49 -21 l-25 -13 35 -12 c39 -13 51 -44
26 -64 -9 -7 -37 -14 -63 -15 -43 -1 -48 -4 -51 -26 -9 -62 44 -151 105 -176
162 -68 313 124 207 263 -44 58 -119 83 -185 64z"/>
<path d="M1662 1748 c-20 -20 -14 -80 24 -251 115 -522 279 -1078 404 -1374
l52 -123 271 1 272 0 -42 21 c-23 12 -47 32 -54 45 -9 17 -18 21 -32 17 -11
-3 -30 0 -44 7 l-24 13 38 11 38 11 -37 37 c-39 40 -74 47 -118 23 -21 -11
-30 -10 -52 1 -37 18 -35 27 9 55 28 16 53 23 93 23 67 0 110 -27 140 -86 11
-21 24 -39 28 -39 4 0 49 10 100 22 58 14 92 27 92 35 0 16 -58 53 -81 53 -9
0 -19 10 -23 23 -12 45 -8 50 31 42 58 -11 91 -32 115 -75 13 -23 31 -40 41
-40 20 0 23 -26 3 -33 -8 -3 -15 -27 -18 -61 -3 -41 -11 -63 -28 -81 l-23 -25
102 0 c99 0 101 0 91 20 -11 20 -19 21 -66 3 -6 -2 -14 3 -17 11 -5 11 3 20
26 30 31 12 33 16 29 54 -8 86 58 166 149 178 61 8 111 -14 146 -65 15 -22 32
-40 38 -41 5 0 52 14 104 31 l95 32 -28 23 c-17 15 -40 24 -60 24 -31 0 -34 3
-38 35 -4 35 -4 35 37 35 49 0 99 -29 120 -70 12 -23 21 -29 34 -25 13 4 20
-1 24 -15 3 -13 0 -20 -9 -20 -10 0 -14 -14 -14 -53 0 -69 -25 -115 -80 -144
-75 -40 -142 -25 -201 46 l-34 41 -104 -35 c-57 -19 -106 -36 -108 -38 -2 -2
9 -16 23 -30 l27 -27 319 0 c285 0 319 2 314 16 -4 10 4 21 24 32 17 9 28 22
26 29 -38 100 13 204 114 234 53 16 109 -1 158 -46 l37 -34 85 46 c47 25 87
48 90 50 3 3 -6 14 -20 25 -18 15 -34 19 -62 15 -34 -5 -38 -3 -47 26 -6 16
-11 31 -11 32 0 1 14 5 31 9 46 9 101 -9 134 -44 18 -19 35 -28 46 -25 18 6
35 -20 19 -30 -5 -3 -6 -36 -3 -73 4 -59 2 -71 -18 -101 -50 -72 -145 -92
-215 -45 -21 14 -44 32 -50 40 -10 13 -26 7 -109 -39 -53 -29 -97 -58 -98 -63
0 -5 17 -18 38 -28 32 -16 45 -17 76 -9 30 8 39 7 43 -4 4 -10 63 -13 305 -13
l299 0 21 33 c11 19 36 42 56 53 35 18 35 19 34 84 -1 36 -4 89 -7 118 -7 52
-7 52 -29 37 -15 -10 -25 -31 -29 -56 -6 -38 -9 -40 -33 -34 -35 9 -34 7 -21
56 16 57 35 85 70 99 18 8 30 20 30 31 0 25 26 24 33 -1 3 -11 13 -20 22 -20
64 0 115 -79 115 -179 0 -80 -21 -125 -71 -154 -27 -15 -39 -29 -39 -44 l0
-23 351 0 352 0 -7 54 c-3 30 -3 68 0 85 6 30 8 31 25 15 17 -16 19 -16 25 1
5 12 0 23 -15 34 -19 15 -22 23 -16 55 7 35 8 36 22 17 25 -37 40 -24 71 62
17 45 34 91 38 101 7 18 4 19 -40 13 -46 -7 -48 -6 -42 16 3 12 6 28 6 35 0 8
17 12 53 12 l52 0 34 96 c18 52 31 98 28 101 -11 11 -59 -8 -84 -33 -14 -14
-27 -23 -30 -20 -3 2 3 27 12 55 18 55 20 56 103 51 23 -1 32 3 32 14 0 18 8
20 28 8 7 -5 10 -15 7 -23 -3 -9 9 -23 30 -36 89 -58 90 -191 3 -256 -17 -13
-50 -22 -90 -26 l-63 -6 -37 -100 c-20 -55 -33 -104 -28 -109 15 -15 80 15
107 49 27 34 30 34 72 6 12 -8 10 -16 -13 -45 -37 -48 -74 -66 -141 -66 -54 0
-57 -1 -70 -33 -8 -19 -11 -50 -8 -80 l6 -47 610 0 610 0 -44 23 c-66 35 -102
93 -107 171 l-4 64 38 -13 c34 -12 40 -18 51 -61 13 -51 72 -119 96 -111 7 2
16 35 20 75 9 73 22 89 43 54 8 -11 9 -37 3 -77 -4 -33 -6 -61 -4 -63 9 -9 55
10 84 34 l31 25 39 -22 c22 -12 38 -26 35 -31 -3 -5 -24 -23 -46 -39 l-41 -29
746 0 745 0 21 27 c16 22 20 24 21 11 0 -22 14 -23 34 -2 23 22 32 43 40 87 6
31 11 37 33 37 25 0 25 -2 21 -48 -3 -27 -12 -63 -21 -80 l-15 -32 165 0 165
0 -5 22 c-3 13 -11 62 -18 111 -7 48 -16 87 -20 87 -17 0 -59 -64 -59 -91 0
-27 -3 -29 -35 -29 -32 0 -35 2 -35 29 0 63 39 123 97 147 24 10 30 18 26 34
-4 15 0 20 16 20 14 0 21 -6 21 -19 0 -15 10 -19 46 -24 58 -6 93 -31 122 -87
24 -48 30 -129 12 -174 l-10 -26 225 0 c141 0 225 4 225 10 0 5 -16 58 -36
116 -99 296 -231 516 -349 583 -54 31 -55 32 -40 54 8 12 15 28 15 37 0 10 21
21 65 34 58 16 63 20 54 37 -19 36 -152 161 -359 339 l-207 178 -77 -14 c-157
-27 -762 -216 -1228 -384 -133 -47 -127 -39 -103 -146 9 -36 13 -69 10 -72 -3
-3 -40 -10 -83 -14 -67 -6 -79 -5 -89 10 -38 54 -69 63 -146 41 -33 -9 -41 -7
-69 12 l-31 22 109 55 c60 30 110 55 112 57 1 1 -32 96 -74 211 -42 115 -83
232 -91 259 -8 28 -20 53 -27 57 -26 17 -219 5 -521 -33 -207 -26 -210 -29
-150 -150 l36 -70 -33 5 c-160 27 -354 34 -360 14 -3 -7 -5 2 -5 19 0 18 -8
42 -18 53 -23 25 -103 27 -272 5 -213 -28 -366 -76 -423 -133 -18 -19 -44 -38
-57 -43 -20 -7 -63 -74 -63 -99 0 -5 14 -10 31 -10 27 0 30 -3 27 -27 -3 -26
-6 -28 -45 -25 -38 2 -44 -1 -58 -28 -10 -19 -20 -27 -30 -24 -18 7 -18 12 -1
43 13 23 11 28 -32 70 l-46 44 -45 -12 c-26 -7 -69 -19 -98 -27 l-52 -15 19
-37 c25 -46 25 -85 1 -137 -26 -57 -52 -76 -112 -84 l-53 -6 -37 -98 -37 -97
26 0 c16 0 38 13 62 39 32 33 39 37 54 25 24 -17 14 -45 -30 -83 -29 -26 -43
-31 -84 -31 -45 0 -50 -3 -56 -25 -3 -14 -13 -25 -21 -25 -10 0 -12 8 -8 34 6
28 3 36 -13 45 -27 14 -52 71 -52 117 0 48 33 117 67 139 14 10 49 20 76 24
l49 6 29 70 c15 39 28 76 28 83 1 18 -37 6 -65 -19 -12 -11 -28 -17 -37 -13
-16 6 -297 -82 -307 -96 -3 -4 -27 -15 -55 -25 -52 -19 -78 -35 -57 -35 6 0
23 -18 38 -39 15 -23 31 -38 39 -35 19 8 30 -17 13 -30 -9 -7 -14 -29 -14 -64
0 -85 -67 -152 -151 -152 -55 0 -94 20 -129 65 -14 19 -33 35 -40 35 -24 0
-204 -61 -204 -69 0 -23 53 -54 99 -59 45 -4 49 -7 53 -33 5 -31 -6 -39 -53
-39 -50 0 -97 26 -130 74 -28 40 -34 43 -56 35 -35 -13 -43 -11 -43 10 0 14 9
21 31 26 28 6 31 10 25 37 -3 17 -6 35 -6 40 0 6 -8 7 -17 3 -26 -9 -188 -36
-257 -42 l-58 -5 -54 57 -54 57 -95 -23 c-111 -27 -118 -30 -109 -53 9 -23 56
-46 97 -46 36 0 47 -12 47 -51 0 -16 -7 -19 -49 -19 -56 0 -103 27 -139 80
-26 40 -42 49 -42 26 0 -9 -8 -16 -19 -16 -14 0 -20 -9 -24 -40 -11 -83 -81
-136 -169 -128 -59 6 -112 51 -130 110 l-11 38 -81 -1 c-45 0 -98 -3 -119 -7
l-38 -7 23 -34 c15 -23 37 -39 66 -49 37 -12 42 -17 42 -43 0 -26 -3 -29 -30
-29 -63 0 -134 60 -146 125 -6 32 -10 35 -39 35 -50 0 -53 26 -4 34 35 6 39 9
39 35 0 36 36 89 79 118 43 29 121 31 171 4 32 -17 70 -71 82 -119 5 -19 11
-20 104 -15 55 3 101 8 104 10 12 11 -29 59 -58 68 -29 8 -33 13 -30 40 3 27
6 30 33 28 39 -3 74 -30 98 -76 31 -60 62 -47 69 29 8 90 79 154 168 154 60 0
94 -22 129 -85 33 -58 97 -135 112 -135 5 0 -7 23 -26 51 -45 66 -62 126 -75
269 -23 245 -92 625 -119 653 -21 21 -95 34 -89 15 3 -7 14 -14 26 -16 16 -3
22 -10 22 -29 0 -22 -3 -24 -27 -19 -16 4 -40 16 -55 26 l-27 20 -29 -25 c-83
-70 -192 -57 -243 30 -21 35 -22 35 -87 34 -37 0 -85 -3 -107 -7 l-40 -8 26
-26 c15 -15 42 -30 61 -33 30 -6 34 -10 30 -31 -5 -30 -31 -31 -88 -4 -26 13
-48 33 -57 53 l-16 31 -78 -3 c-123 -4 -287 33 -480 110 -84 33 -85 33 -101
17z m265 -213 c13 -9 34 -36 46 -61 l22 -46 44 6 c24 3 66 6 92 6 27 0 49 4
49 10 0 15 -42 50 -62 50 -13 0 -18 8 -18 30 0 28 2 30 28 24 40 -9 75 -36 94
-74 9 -18 23 -37 30 -41 10 -7 9 -11 -3 -21 -9 -7 -20 -26 -23 -41 -19 -82
-144 -121 -223 -71 -13 8 -32 32 -43 54 l-20 40 -90 0 c-50 0 -90 4 -90 9 0 9
72 21 132 21 l39 0 -15 29 c-25 47 -84 57 -158 26 -15 -6 -18 -2 -18 19 0 21
8 30 33 42 39 17 119 12 154 -11z m1095 -160 c5 -22 1 -26 -33 -35 -43 -12
-79 -51 -79 -86 0 -22 1 -23 38 -10 71 25 92 27 92 12 0 -9 -24 -19 -72 -30
-74 -16 -143 -27 -120 -19 7 3 12 22 12 45 0 56 26 94 84 123 62 31 72 31 78
0z m-612 -103 c35 -18 85 -96 74 -113 -7 -13 -64 -11 -64 1 0 6 -11 22 -25 35
-19 19 -35 25 -71 25 -39 0 -51 -5 -78 -32 -24 -24 -40 -32 -59 -30 -24 3 -25
5 -16 30 33 88 152 129 239 84z m3758 -41 c10 -6 11 -18 3 -50 l-9 -43 31 6
c34 7 66 31 76 60 7 17 9 16 24 -7 29 -44 26 -50 -30 -51 -74 -2 -107 -29
-147 -126 l-15 -35 6 44 6 44 -33 -7 c-43 -8 -68 -31 -79 -72 -12 -43 -4 -72
26 -105 18 -20 22 -33 17 -53 -8 -32 -9 -32 -52 0 -107 82 -71 269 57 289 82
14 80 12 87 65 7 51 10 55 32 41z m-3408 -168 c0 -10 -9 -36 -19 -59 -20 -45
-83 -84 -134 -84 -60 0 -124 45 -146 103 -10 26 -9 27 20 27 21 0 40 -9 59
-30 48 -52 133 -36 160 30 14 34 60 44 60 13z m-693 -88 c12 -14 28 -43 34
-65 7 -22 18 -40 26 -40 21 0 15 -37 -7 -43 -11 -3 -20 -13 -20 -24 0 -33 -36
-86 -71 -105 -48 -25 -65 -23 -78 12 -8 25 -7 30 5 30 41 0 94 51 94 90 0 6
-31 10 -69 10 -52 0 -70 4 -75 15 -4 13 7 15 69 15 54 0 75 4 75 13 0 22 -28
54 -60 67 -20 8 -29 18 -26 27 4 8 6 23 6 34 0 18 2 19 38 4 20 -8 47 -27 59
-40z m2979 -271 c-3 -9 -6 -24 -6 -34 0 -10 -9 -22 -21 -25 -33 -11 -61 -83
-49 -127 6 -20 17 -41 25 -48 25 -20 12 -157 -12 -142 -10 6 -10 15 -1 40 12
31 11 34 -21 59 -62 49 -78 132 -40 209 22 46 70 84 108 84 17 0 22 -4 17 -16z
m4118 -25 l26 -21 -20 -25 c-14 -19 -20 -41 -20 -80 0 -50 3 -58 37 -91 l36
-37 8 25 c4 14 10 47 14 75 6 46 8 48 22 30 10 -15 13 -35 8 -77 l-7 -58 33
12 c28 10 34 9 46 -8 23 -31 12 -48 -40 -58 -45 -9 -48 -11 -53 -48 -5 -28
-11 -38 -25 -38 -16 0 -18 6 -13 44 6 40 5 44 -19 50 -99 25 -147 174 -93 289
21 43 24 44 60 16z m-930 -170 c-25 -50 -60 -79 -93 -79 -34 0 -34 -1 -51
-108 -9 -53 -25 -98 -57 -159 -43 -79 -47 -84 -72 -78 -37 9 -92 55 -113 96
l-18 36 37 109 38 109 165 51 c91 29 168 53 173 53 4 1 0 -13 -9 -30z m-2124
-243 c0 -37 40 -96 65 -96 15 0 21 15 31 83 5 38 10 47 26 47 16 0 19 -5 14
-27 -19 -100 -19 -113 2 -113 26 0 81 46 93 78 8 20 14 23 37 17 15 -4 29 -8
31 -10 11 -11 -15 -63 -47 -95 -29 -29 -48 -39 -87 -45 -53 -7 -65 -17 -65
-52 0 -25 -1 -26 -23 -17 -11 4 -14 15 -10 39 5 28 2 34 -18 40 -64 20 -118
92 -119 158 0 24 3 27 35 27 33 0 35 -2 35 -34z"/>
<path d="M7983 401 c-97 -44 -99 -188 -4 -244 38 -22 34 -30 59 136 21 144 22
142 -55 108z"/>
<path d="M2942 777 c-27 -16 -47 -43 -56 -79 -5 -22 -3 -28 9 -28 23 0 189 42
198 50 4 4 -5 21 -22 38 -23 25 -37 32 -68 32 -21 -1 -48 -6 -61 -13z"/>
<path d="M3910 763 c-19 -8 -45 -19 -58 -24 l-23 -9 28 -37 c15 -21 28 -39 28
-40 3 -8 195 61 192 70 -13 41 -111 64 -167 40z"/>
<path d="M2314 689 c-34 -10 -68 -43 -79 -78 l-7 -24 108 7 c60 4 110 9 112
11 5 5 -26 63 -38 70 -25 15 -67 21 -96 14z"/>
<path d="M3674 666 c-52 -24 -64 -39 -64 -83 0 -16 5 -23 13 -21 6 3 50 18 97
33 47 15 89 31 94 35 13 13 -40 60 -66 59 -13 0 -46 -11 -74 -23z"/>
<path d="M3930 243 c-31 -11 -70 -58 -76 -90 -11 -59 6 -60 105 -7 50 27 91
52 91 56 0 3 -15 16 -34 27 -33 21 -57 25 -86 14z"/>
<path d="M3113 210 c-17 -10 -37 -28 -42 -39 -15 -27 -14 -71 1 -71 7 0 55 14
107 31 l95 32 -37 33 c-43 39 -77 43 -124 14z"/>
<path d="M8942 219 c3 -8 11 -57 18 -109 7 -52 17 -99 21 -104 13 -14 66 40
72 74 13 63 -28 131 -87 146 -23 5 -28 4 -24 -7z"/>
</g>
</svg>
